<mxfile host="Electron" agent="Mozilla/5.0 (Windows NT 10.0; Win64; x64) AppleWebKit/537.36 (KHTML, like Gecko) draw.io/25.0.2 Chrome/128.0.6613.186 Electron/32.2.5 Safari/537.36" version="25.0.2">
  <diagram name="Page-1" id="eZRRN8Tk8PH1yMmj5PiH">
    <mxGraphModel dx="1920" dy="729" grid="1" gridSize="10" guides="1" tooltips="1" connect="1" arrows="1" fold="1" page="0" pageScale="1" pageWidth="827" pageHeight="1169" math="0" shadow="0">
      <root>
        <mxCell id="0" />
        <mxCell id="1" parent="0" />
        <mxCell id="_2LufP0DOa4UtMb47R02-2" value="&lt;div style=&quot;color: #f8f8f2;background-color: #282a36;font-family: Consolas, &#39;Courier New&#39;, monospace;font-weight: normal;font-size: 14px;line-height: 19px;white-space: pre;&quot;&gt;&lt;div&gt;&lt;span style=&quot;color: #50fa7b;&quot;&gt;getIsInCrouchRange&lt;/span&gt;&lt;/div&gt;&lt;/div&gt;" style="text;whiteSpace=wrap;html=1;" parent="1" vertex="1">
          <mxGeometry x="1174" y="580" width="140" height="30" as="geometry" />
        </mxCell>
        <mxCell id="_2LufP0DOa4UtMb47R02-5" style="rounded=0;orthogonalLoop=1;jettySize=auto;html=1;exitX=1;exitY=0.5;exitDx=0;exitDy=0;entryX=0;entryY=0.5;entryDx=0;entryDy=0;" parent="1" source="_2LufP0DOa4UtMb47R02-3" target="_2LufP0DOa4UtMb47R02-2" edge="1">
          <mxGeometry relative="1" as="geometry" />
        </mxCell>
        <mxCell id="_2LufP0DOa4UtMb47R02-3" value="&lt;div style=&quot;color: #f8f8f2;background-color: #282a36;font-family: Consolas, &#39;Courier New&#39;, monospace;font-weight: normal;font-size: 14px;line-height: 19px;white-space: pre;&quot;&gt;&lt;div&gt;&lt;span style=&quot;color: rgb(139, 233, 253); font-style: italic;&quot;&gt;outputTrackAndNerfObject.&lt;/span&gt;&lt;span style=&quot;color: #50fa7b;&quot;&gt;crouchTechniqueNerfSearch&lt;/span&gt;&lt;/div&gt;&lt;/div&gt;" style="text;whiteSpace=wrap;html=1;" parent="1" vertex="1">
          <mxGeometry x="664" y="580" width="390" height="30" as="geometry" />
        </mxCell>
        <mxCell id="_2LufP0DOa4UtMb47R02-63" style="edgeStyle=orthogonalEdgeStyle;rounded=0;orthogonalLoop=1;jettySize=auto;html=1;exitX=0.25;exitY=0;exitDx=0;exitDy=0;entryX=1;entryY=0.5;entryDx=0;entryDy=0;" parent="1" source="_2LufP0DOa4UtMb47R02-7" target="_2LufP0DOa4UtMb47R02-26" edge="1">
          <mxGeometry relative="1" as="geometry" />
        </mxCell>
        <mxCell id="_2LufP0DOa4UtMb47R02-7" value="&lt;div style=&quot;color: rgb(248, 248, 242); background-color: rgb(40, 42, 54); font-family: Consolas, &amp;quot;Courier New&amp;quot;, monospace; font-weight: normal; line-height: 19px; white-space: pre;&quot;&gt;&lt;div&gt;&lt;span style=&quot;color: #50fa7b;&quot;&gt;getOutputLimited&lt;/span&gt;&lt;/div&gt;&lt;/div&gt;" style="text;whiteSpace=wrap;html=1;fontSize=23;" parent="1" vertex="1">
          <mxGeometry x="340" y="800" width="210" height="30" as="geometry" />
        </mxCell>
        <mxCell id="_2LufP0DOa4UtMb47R02-8" value="" style="endArrow=classic;html=1;rounded=0;exitX=1;exitY=0.5;exitDx=0;exitDy=0;entryX=0;entryY=0.5;entryDx=0;entryDy=0;" parent="1" source="_2LufP0DOa4UtMb47R02-7" target="_2LufP0DOa4UtMb47R02-2" edge="1">
          <mxGeometry width="50" height="50" relative="1" as="geometry">
            <mxPoint x="750" y="460" as="sourcePoint" />
            <mxPoint x="800" y="410" as="targetPoint" />
          </mxGeometry>
        </mxCell>
        <mxCell id="_2LufP0DOa4UtMb47R02-9" value="" style="endArrow=classic;html=1;rounded=0;exitX=1;exitY=0.5;exitDx=0;exitDy=0;entryX=0;entryY=0.5;entryDx=0;entryDy=0;" parent="1" source="_2LufP0DOa4UtMb47R02-7" target="_2LufP0DOa4UtMb47R02-3" edge="1">
          <mxGeometry width="50" height="50" relative="1" as="geometry">
            <mxPoint x="750" y="460" as="sourcePoint" />
            <mxPoint x="800" y="410" as="targetPoint" />
          </mxGeometry>
        </mxCell>
        <mxCell id="_2LufP0DOa4UtMb47R02-10" value="&lt;div style=&quot;color: #f8f8f2;background-color: #282a36;font-family: Consolas, &#39;Courier New&#39;, monospace;font-weight: normal;font-size: 14px;line-height: 19px;white-space: pre;&quot;&gt;&lt;div&gt;&lt;span style=&quot;color: #50fa7b;&quot;&gt;getCurrentCrouchRangeInfo&lt;/span&gt;&lt;/div&gt;&lt;/div&gt;" style="text;whiteSpace=wrap;html=1;" parent="1" vertex="1">
          <mxGeometry x="1084" y="470" width="200" height="30" as="geometry" />
        </mxCell>
        <mxCell id="_2LufP0DOa4UtMb47R02-11" value="" style="endArrow=classic;html=1;rounded=0;exitX=1;exitY=0.5;exitDx=0;exitDy=0;entryX=0;entryY=0.5;entryDx=0;entryDy=0;" parent="1" source="_2LufP0DOa4UtMb47R02-3" target="_2LufP0DOa4UtMb47R02-10" edge="1">
          <mxGeometry width="50" height="50" relative="1" as="geometry">
            <mxPoint x="864" y="680" as="sourcePoint" />
            <mxPoint x="914" y="630" as="targetPoint" />
          </mxGeometry>
        </mxCell>
        <mxCell id="_2LufP0DOa4UtMb47R02-12" value="&lt;div style=&quot;color: #f8f8f2;background-color: #282a36;font-family: Consolas, &#39;Courier New&#39;, monospace;font-weight: normal;font-size: 14px;line-height: 19px;white-space: pre;&quot;&gt;&lt;div&gt;&lt;span style=&quot;color: #50fa7b;&quot;&gt;getUncrouchDid&lt;/span&gt;&lt;/div&gt;&lt;/div&gt;" style="text;whiteSpace=wrap;html=1;" parent="1" vertex="1">
          <mxGeometry x="1334" y="430" width="110" height="30" as="geometry" />
        </mxCell>
        <mxCell id="_2LufP0DOa4UtMb47R02-13" value="" style="endArrow=classic;html=1;rounded=0;entryX=0;entryY=0.5;entryDx=0;entryDy=0;exitX=1;exitY=0.5;exitDx=0;exitDy=0;" parent="1" source="_2LufP0DOa4UtMb47R02-10" target="_2LufP0DOa4UtMb47R02-12" edge="1">
          <mxGeometry width="50" height="50" relative="1" as="geometry">
            <mxPoint x="1174" y="680" as="sourcePoint" />
            <mxPoint x="1224" y="630" as="targetPoint" />
          </mxGeometry>
        </mxCell>
        <mxCell id="_2LufP0DOa4UtMb47R02-14" value="&lt;div style=&quot;color: #f8f8f2;background-color: #282a36;font-family: Consolas, &#39;Courier New&#39;, monospace;font-weight: normal;font-size: 14px;line-height: 19px;white-space: pre;&quot;&gt;&lt;div&gt;&lt;span style=&quot;color: rgb(139, 233, 253); font-style: italic;&quot;&gt;crouchRangeHistoryObject.&lt;/span&gt;&lt;span style=&quot;color: #50fa7b;&quot;&gt;recordCrouchOutput&lt;/span&gt;&lt;/div&gt;&lt;/div&gt;" style="text;whiteSpace=wrap;html=1;" parent="1" vertex="1">
          <mxGeometry x="664" y="400" width="340" height="30" as="geometry" />
        </mxCell>
        <mxCell id="_2LufP0DOa4UtMb47R02-15" value="" style="endArrow=classic;html=1;rounded=0;entryX=0;entryY=0.5;entryDx=0;entryDy=0;exitX=1;exitY=0.5;exitDx=0;exitDy=0;" parent="1" source="_2LufP0DOa4UtMb47R02-14" target="_2LufP0DOa4UtMb47R02-12" edge="1">
          <mxGeometry width="50" height="50" relative="1" as="geometry">
            <mxPoint x="1254" y="380" as="sourcePoint" />
            <mxPoint x="1304" y="330" as="targetPoint" />
          </mxGeometry>
        </mxCell>
        <mxCell id="_2LufP0DOa4UtMb47R02-16" value="" style="endArrow=classic;html=1;rounded=0;exitX=1;exitY=0.5;exitDx=0;exitDy=0;entryX=0;entryY=0.5;entryDx=0;entryDy=0;" parent="1" source="_2LufP0DOa4UtMb47R02-7" target="_2LufP0DOa4UtMb47R02-14" edge="1">
          <mxGeometry width="50" height="50" relative="1" as="geometry">
            <mxPoint x="490" y="400" as="sourcePoint" />
            <mxPoint x="540" y="350" as="targetPoint" />
          </mxGeometry>
        </mxCell>
        <mxCell id="_2LufP0DOa4UtMb47R02-17" value="&lt;div style=&quot;color: #f8f8f2;background-color: #282a36;font-family: Consolas, &#39;Courier New&#39;, monospace;font-weight: normal;font-size: 14px;line-height: 19px;white-space: pre;&quot;&gt;&lt;div&gt;&lt;span style=&quot;color: #50fa7b;&quot;&gt;getUncrouchNerfCondition&lt;/span&gt;&lt;/div&gt;&lt;/div&gt;" style="text;whiteSpace=wrap;html=1;" parent="1" vertex="1">
          <mxGeometry x="1154" y="680" width="190" height="30" as="geometry" />
        </mxCell>
        <mxCell id="_2LufP0DOa4UtMb47R02-19" value="" style="endArrow=classic;html=1;rounded=0;entryX=0;entryY=0.5;entryDx=0;entryDy=0;exitX=1;exitY=0.5;exitDx=0;exitDy=0;" parent="1" source="_2LufP0DOa4UtMb47R02-3" target="_2LufP0DOa4UtMb47R02-17" edge="1">
          <mxGeometry width="50" height="50" relative="1" as="geometry">
            <mxPoint x="994" y="600" as="sourcePoint" />
            <mxPoint x="1044" y="550" as="targetPoint" />
          </mxGeometry>
        </mxCell>
        <mxCell id="_2LufP0DOa4UtMb47R02-20" value="&lt;div style=&quot;color: #f8f8f2;background-color: #282a36;font-family: Consolas, &#39;Courier New&#39;, monospace;font-weight: normal;font-size: 14px;line-height: 19px;white-space: pre;&quot;&gt;&lt;div&gt;&lt;span style=&quot;color: #50fa7b;&quot;&gt;getIsOutOfDeadzoneUp&lt;/span&gt;&lt;/div&gt;&lt;/div&gt;" style="text;whiteSpace=wrap;html=1;" parent="1" vertex="1">
          <mxGeometry x="1460" y="750" width="160" height="30" as="geometry" />
        </mxCell>
        <mxCell id="_2LufP0DOa4UtMb47R02-21" value="" style="endArrow=classic;html=1;rounded=0;entryX=0;entryY=0.5;entryDx=0;entryDy=0;exitX=1;exitY=0.5;exitDx=0;exitDy=0;" parent="1" source="_2LufP0DOa4UtMb47R02-17" target="_2LufP0DOa4UtMb47R02-20" edge="1">
          <mxGeometry width="50" height="50" relative="1" as="geometry">
            <mxPoint x="984" y="540" as="sourcePoint" />
            <mxPoint x="1034" y="490" as="targetPoint" />
          </mxGeometry>
        </mxCell>
        <mxCell id="_2LufP0DOa4UtMb47R02-22" value="" style="endArrow=classic;html=1;rounded=0;entryX=0;entryY=0.5;entryDx=0;entryDy=0;exitX=1;exitY=0.5;exitDx=0;exitDy=0;" parent="1" source="_2LufP0DOa4UtMb47R02-7" target="_2LufP0DOa4UtMb47R02-20" edge="1">
          <mxGeometry width="50" height="50" relative="1" as="geometry">
            <mxPoint x="860" y="530" as="sourcePoint" />
            <mxPoint x="910" y="480" as="targetPoint" />
          </mxGeometry>
        </mxCell>
        <mxCell id="_2LufP0DOa4UtMb47R02-23" value="&lt;div style=&quot;color: #f8f8f2;background-color: #282a36;font-family: Consolas, &#39;Courier New&#39;, monospace;font-weight: normal;font-size: 14px;line-height: 19px;white-space: pre;&quot;&gt;&lt;div&gt;&lt;span style=&quot;color: #50fa7b;&quot;&gt;getPivotNerfCondition&lt;/span&gt;&lt;/div&gt;&lt;/div&gt;" style="text;whiteSpace=wrap;html=1;" parent="1" vertex="1">
          <mxGeometry x="1154" y="980" width="170" height="30" as="geometry" />
        </mxCell>
        <mxCell id="_2LufP0DOa4UtMb47R02-24" value="" style="endArrow=classic;html=1;rounded=0;entryX=0;entryY=0.5;entryDx=0;entryDy=0;exitX=1;exitY=0.5;exitDx=0;exitDy=0;" parent="1" source="_2LufP0DOa4UtMb47R02-23" target="_2LufP0DOa4UtMb47R02-20" edge="1">
          <mxGeometry width="50" height="50" relative="1" as="geometry">
            <mxPoint x="984" y="540" as="sourcePoint" />
            <mxPoint x="1034" y="490" as="targetPoint" />
          </mxGeometry>
        </mxCell>
        <mxCell id="_2LufP0DOa4UtMb47R02-25" value="&lt;div style=&quot;color: #f8f8f2;background-color: #282a36;font-family: Consolas, &#39;Courier New&#39;, monospace;font-weight: normal;font-size: 14px;line-height: 19px;white-space: pre;&quot;&gt;&lt;div&gt;&lt;span style=&quot;color: #50fa7b;&quot;&gt;getUncrouchNerfedCoords&lt;/span&gt;&lt;/div&gt;&lt;/div&gt;" style="text;whiteSpace=wrap;html=1;" parent="1" vertex="1">
          <mxGeometry x="10" y="690" width="180" height="30" as="geometry" />
        </mxCell>
        <mxCell id="_2LufP0DOa4UtMb47R02-65" style="edgeStyle=orthogonalEdgeStyle;rounded=0;orthogonalLoop=1;jettySize=auto;html=1;exitX=0.5;exitY=0;exitDx=0;exitDy=0;entryX=1;entryY=0.5;entryDx=0;entryDy=0;" parent="1" source="_2LufP0DOa4UtMb47R02-26" target="_2LufP0DOa4UtMb47R02-25" edge="1">
          <mxGeometry relative="1" as="geometry" />
        </mxCell>
        <mxCell id="_2LufP0DOa4UtMb47R02-66" style="edgeStyle=orthogonalEdgeStyle;rounded=0;orthogonalLoop=1;jettySize=auto;html=1;exitX=0.75;exitY=0;exitDx=0;exitDy=0;entryX=1;entryY=0.5;entryDx=0;entryDy=0;" parent="1" source="_2LufP0DOa4UtMb47R02-26" target="_2LufP0DOa4UtMb47R02-57" edge="1">
          <mxGeometry relative="1" as="geometry" />
        </mxCell>
        <mxCell id="_2LufP0DOa4UtMb47R02-26" value="&lt;div style=&quot;color: #f8f8f2;background-color: #282a36;font-family: Consolas, &#39;Courier New&#39;, monospace;font-weight: normal;font-size: 14px;line-height: 19px;white-space: pre;&quot;&gt;&lt;div&gt;&lt;span style=&quot;color: rgb(139, 233, 253); font-style: italic;&quot;&gt;outputTrackAndNerfObject.&lt;/span&gt;&lt;span style=&quot;color: #50fa7b;&quot;&gt;applyLockout&lt;/span&gt;&lt;/div&gt;&lt;/div&gt;" style="text;whiteSpace=wrap;html=1;" parent="1" vertex="1">
          <mxGeometry x="70" y="740" width="290" height="25" as="geometry" />
        </mxCell>
        <mxCell id="_2LufP0DOa4UtMb47R02-29" value="&lt;div style=&quot;color: #f8f8f2;background-color: #282a36;font-family: Consolas, &#39;Courier New&#39;, monospace;font-weight: normal;font-size: 14px;line-height: 19px;white-space: pre;&quot;&gt;&lt;div&gt;&lt;span style=&quot;color: #50fa7b;&quot;&gt;getIsOutOfDeadzoneDown&lt;/span&gt;&lt;/div&gt;&lt;/div&gt;" style="text;whiteSpace=wrap;html=1;" parent="1" vertex="1">
          <mxGeometry x="1450" y="820" width="180" height="30" as="geometry" />
        </mxCell>
        <mxCell id="_2LufP0DOa4UtMb47R02-30" value="" style="endArrow=classic;html=1;rounded=0;entryX=0;entryY=0.5;entryDx=0;entryDy=0;exitX=1;exitY=0.5;exitDx=0;exitDy=0;" parent="1" source="_2LufP0DOa4UtMb47R02-7" target="_2LufP0DOa4UtMb47R02-29" edge="1">
          <mxGeometry width="50" height="50" relative="1" as="geometry">
            <mxPoint x="470" y="660" as="sourcePoint" />
            <mxPoint x="940" y="570" as="targetPoint" />
          </mxGeometry>
        </mxCell>
        <mxCell id="_2LufP0DOa4UtMb47R02-31" value="" style="endArrow=classic;html=1;rounded=0;entryX=0;entryY=0.5;entryDx=0;entryDy=0;exitX=1;exitY=0.5;exitDx=0;exitDy=0;" parent="1" source="_2LufP0DOa4UtMb47R02-23" target="_2LufP0DOa4UtMb47R02-29" edge="1">
          <mxGeometry width="50" height="50" relative="1" as="geometry">
            <mxPoint x="1014" y="860" as="sourcePoint" />
            <mxPoint x="1374" y="720" as="targetPoint" />
          </mxGeometry>
        </mxCell>
        <mxCell id="_2LufP0DOa4UtMb47R02-32" value="&lt;div style=&quot;color: #f8f8f2;background-color: #282a36;font-family: Consolas, &#39;Courier New&#39;, monospace;font-weight: normal;font-size: 14px;line-height: 19px;white-space: pre;&quot;&gt;&lt;div&gt;&lt;span style=&quot;color: rgb(139, 233, 253); font-style: italic;&quot;&gt;crouchRangeHistoryObject.&lt;/span&gt;&lt;span style=&quot;color: #50fa7b;&quot;&gt;saveHistory&lt;/span&gt;&lt;/div&gt;&lt;/div&gt;" style="text;whiteSpace=wrap;html=1;" parent="1" vertex="1">
          <mxGeometry x="90" y="870" width="280" height="30" as="geometry" />
        </mxCell>
        <mxCell id="_2LufP0DOa4UtMb47R02-33" value="&lt;div style=&quot;color: #f8f8f2;background-color: #282a36;font-family: Consolas, &#39;Courier New&#39;, monospace;font-weight: normal;font-size: 14px;line-height: 19px;white-space: pre;&quot;&gt;&lt;div&gt;&lt;span style=&quot;color: rgb(139, 233, 253); font-style: italic;&quot;&gt;dashZoneHistoryObject.&lt;/span&gt;&lt;span style=&quot;color: #50fa7b;&quot;&gt;saveHistory&lt;/span&gt;&lt;/div&gt;&lt;/div&gt;" style="text;whiteSpace=wrap;html=1;" parent="1" vertex="1">
          <mxGeometry x="110" y="920" width="260" height="30" as="geometry" />
        </mxCell>
        <mxCell id="_2LufP0DOa4UtMb47R02-34" value="&lt;div style=&quot;color: #f8f8f2;background-color: #282a36;font-family: Consolas, &#39;Courier New&#39;, monospace;font-weight: normal;font-size: 14px;line-height: 19px;white-space: pre;&quot;&gt;&lt;div&gt;&lt;span style=&quot;color: #8be9fd;font-style: italic;&quot;&gt;directionDeadzoneHistoryObject.&lt;/span&gt;&lt;span style=&quot;color: rgb(80, 250, 123);&quot;&gt;saveHistory&lt;/span&gt;&lt;/div&gt;&lt;/div&gt;" style="text;whiteSpace=wrap;html=1;" parent="1" vertex="1">
          <mxGeometry x="40" y="970" width="330" height="30" as="geometry" />
        </mxCell>
        <mxCell id="_2LufP0DOa4UtMb47R02-35" value="" style="endArrow=classic;html=1;rounded=0;edgeStyle=orthogonalEdgeStyle;exitX=0.25;exitY=1;exitDx=0;exitDy=0;entryX=1;entryY=0.5;entryDx=0;entryDy=0;" parent="1" source="_2LufP0DOa4UtMb47R02-7" target="_2LufP0DOa4UtMb47R02-32" edge="1">
          <mxGeometry width="50" height="50" relative="1" as="geometry">
            <mxPoint x="430" y="1040" as="sourcePoint" />
            <mxPoint x="480" y="990" as="targetPoint" />
          </mxGeometry>
        </mxCell>
        <mxCell id="_2LufP0DOa4UtMb47R02-36" value="" style="endArrow=classic;html=1;rounded=0;exitX=0.5;exitY=1;exitDx=0;exitDy=0;entryX=1;entryY=0.5;entryDx=0;entryDy=0;edgeStyle=orthogonalEdgeStyle;" parent="1" source="_2LufP0DOa4UtMb47R02-7" target="_2LufP0DOa4UtMb47R02-33" edge="1">
          <mxGeometry width="50" height="50" relative="1" as="geometry">
            <mxPoint x="430" y="1040" as="sourcePoint" />
            <mxPoint x="480" y="990" as="targetPoint" />
          </mxGeometry>
        </mxCell>
        <mxCell id="_2LufP0DOa4UtMb47R02-37" value="" style="endArrow=classic;html=1;rounded=0;exitX=0.75;exitY=1;exitDx=0;exitDy=0;edgeStyle=orthogonalEdgeStyle;entryX=1;entryY=0.5;entryDx=0;entryDy=0;" parent="1" source="_2LufP0DOa4UtMb47R02-7" target="_2LufP0DOa4UtMb47R02-34" edge="1">
          <mxGeometry width="50" height="50" relative="1" as="geometry">
            <mxPoint x="430" y="1040" as="sourcePoint" />
            <mxPoint x="480" y="990" as="targetPoint" />
          </mxGeometry>
        </mxCell>
        <mxCell id="_2LufP0DOa4UtMb47R02-38" value="&lt;div style=&quot;color: #f8f8f2;background-color: #282a36;font-family: Consolas, &#39;Courier New&#39;, monospace;font-weight: normal;font-size: 14px;line-height: 19px;white-space: pre;&quot;&gt;&lt;div&gt;&lt;span style=&quot;color: #50fa7b;&quot;&gt;getCurrentOutOfDeadzoneTimestamp&lt;/span&gt;&lt;/div&gt;&lt;/div&gt;" style="text;whiteSpace=wrap;html=1;" parent="1" vertex="1">
          <mxGeometry x="1450" y="880" width="250" height="30" as="geometry" />
        </mxCell>
        <mxCell id="_2LufP0DOa4UtMb47R02-39" value="" style="endArrow=classic;html=1;rounded=0;entryX=0;entryY=0.5;entryDx=0;entryDy=0;exitX=1;exitY=0.5;exitDx=0;exitDy=0;" parent="1" source="_2LufP0DOa4UtMb47R02-23" target="_2LufP0DOa4UtMb47R02-38" edge="1">
          <mxGeometry width="50" height="50" relative="1" as="geometry">
            <mxPoint x="1244" y="860" as="sourcePoint" />
            <mxPoint x="1294" y="810" as="targetPoint" />
          </mxGeometry>
        </mxCell>
        <mxCell id="_2LufP0DOa4UtMb47R02-40" value="&lt;div style=&quot;color: #f8f8f2;background-color: #282a36;font-family: Consolas, &#39;Courier New&#39;, monospace;font-weight: normal;font-size: 14px;line-height: 19px;white-space: pre;&quot;&gt;&lt;div&gt;&lt;span style=&quot;color: #50fa7b;&quot;&gt;getAttemptedPivotDirection&lt;/span&gt;&lt;/div&gt;&lt;/div&gt;" style="text;whiteSpace=wrap;html=1;" parent="1" vertex="1">
          <mxGeometry x="1426" y="1200" width="210" height="30" as="geometry" />
        </mxCell>
        <mxCell id="_2LufP0DOa4UtMb47R02-41" value="&lt;div style=&quot;color: #f8f8f2;background-color: #282a36;font-family: Consolas, &#39;Courier New&#39;, monospace;font-weight: normal;font-size: 14px;line-height: 19px;white-space: pre;&quot;&gt;&lt;div&gt;&lt;span style=&quot;color: #50fa7b;&quot;&gt;pivotTimingCheck&lt;/span&gt;&lt;/div&gt;&lt;/div&gt;" style="text;whiteSpace=wrap;html=1;" parent="1" vertex="1">
          <mxGeometry x="1426" y="1250" width="130" height="30" as="geometry" />
        </mxCell>
        <mxCell id="_2LufP0DOa4UtMb47R02-42" value="&lt;div style=&quot;color: #f8f8f2;background-color: #282a36;font-family: Consolas, &#39;Courier New&#39;, monospace;font-weight: normal;font-size: 14px;line-height: 19px;white-space: pre;&quot;&gt;&lt;div&gt;&lt;span style=&quot;color: #50fa7b;&quot;&gt;getPivotDid&lt;/span&gt;&lt;/div&gt;&lt;/div&gt;" style="text;whiteSpace=wrap;html=1;" parent="1" vertex="1">
          <mxGeometry x="1300" y="1230" width="90" height="30" as="geometry" />
        </mxCell>
        <mxCell id="_2LufP0DOa4UtMb47R02-43" value="" style="endArrow=classic;html=1;rounded=0;entryX=0;entryY=0.5;entryDx=0;entryDy=0;exitX=1;exitY=0.5;exitDx=0;exitDy=0;" parent="1" source="_2LufP0DOa4UtMb47R02-42" target="_2LufP0DOa4UtMb47R02-40" edge="1">
          <mxGeometry width="50" height="50" relative="1" as="geometry">
            <mxPoint x="1330" y="1149.5" as="sourcePoint" />
            <mxPoint x="1380" y="1099.5" as="targetPoint" />
          </mxGeometry>
        </mxCell>
        <mxCell id="_2LufP0DOa4UtMb47R02-44" value="" style="endArrow=classic;html=1;rounded=0;entryX=0;entryY=0.5;entryDx=0;entryDy=0;exitX=1;exitY=0.5;exitDx=0;exitDy=0;" parent="1" source="_2LufP0DOa4UtMb47R02-42" target="_2LufP0DOa4UtMb47R02-41" edge="1">
          <mxGeometry width="50" height="50" relative="1" as="geometry">
            <mxPoint x="1330" y="1149.5" as="sourcePoint" />
            <mxPoint x="1380" y="1099.5" as="targetPoint" />
          </mxGeometry>
        </mxCell>
        <mxCell id="_2LufP0DOa4UtMb47R02-45" value="&lt;div style=&quot;color: #f8f8f2;background-color: #282a36;font-family: Consolas, &#39;Courier New&#39;, monospace;font-weight: normal;font-size: 14px;line-height: 19px;white-space: pre;&quot;&gt;&lt;div&gt;&lt;span style=&quot;color: rgb(139, 233, 253); font-style: italic;&quot;&gt;dashZoneHistoryObject.&lt;/span&gt;&lt;span style=&quot;color: #50fa7b;&quot;&gt;recordDashOutput&lt;/span&gt;&lt;/div&gt;&lt;/div&gt;" style="text;whiteSpace=wrap;html=1;" parent="1" vertex="1">
          <mxGeometry x="704" y="1280" width="300" height="30" as="geometry" />
        </mxCell>
        <mxCell id="_2LufP0DOa4UtMb47R02-46" value="" style="endArrow=classic;html=1;rounded=0;entryX=0;entryY=0.5;entryDx=0;entryDy=0;exitX=1;exitY=0.5;exitDx=0;exitDy=0;" parent="1" source="_2LufP0DOa4UtMb47R02-45" target="_2LufP0DOa4UtMb47R02-42" edge="1">
          <mxGeometry width="50" height="50" relative="1" as="geometry">
            <mxPoint x="1190" y="1265.5" as="sourcePoint" />
            <mxPoint x="1305" y="1130.5" as="targetPoint" />
          </mxGeometry>
        </mxCell>
        <mxCell id="_2LufP0DOa4UtMb47R02-47" value="&lt;div style=&quot;color: #f8f8f2;background-color: #282a36;font-family: Consolas, &#39;Courier New&#39;, monospace;font-weight: normal;font-size: 14px;line-height: 19px;white-space: pre;&quot;&gt;&lt;div&gt;&lt;span style=&quot;color: #50fa7b;&quot;&gt;getCurrentDashZoneInfo&lt;/span&gt;&lt;/div&gt;&lt;/div&gt;" style="text;whiteSpace=wrap;html=1;" parent="1" vertex="1">
          <mxGeometry x="1084" y="1150" width="175" height="25" as="geometry" />
        </mxCell>
        <mxCell id="_2LufP0DOa4UtMb47R02-48" value="" style="endArrow=classic;html=1;rounded=0;entryX=0;entryY=0.5;entryDx=0;entryDy=0;exitX=1;exitY=0.5;exitDx=0;exitDy=0;" parent="1" source="_2LufP0DOa4UtMb47R02-47" target="_2LufP0DOa4UtMb47R02-42" edge="1">
          <mxGeometry width="50" height="50" relative="1" as="geometry">
            <mxPoint x="1150" y="1215.5" as="sourcePoint" />
            <mxPoint x="1305" y="1130.5" as="targetPoint" />
          </mxGeometry>
        </mxCell>
        <mxCell id="_2LufP0DOa4UtMb47R02-49" value="&lt;div style=&quot;color: #f8f8f2;background-color: #282a36;font-family: Consolas, &#39;Courier New&#39;, monospace;font-weight: normal;font-size: 14px;line-height: 19px;white-space: pre;&quot;&gt;&lt;div&gt;&lt;span style=&quot;color: rgb(139, 233, 253); font-style: italic;&quot;&gt;outputTrackAndNerfObject.&lt;/span&gt;&lt;span style=&quot;color: #50fa7b;&quot;&gt;dashTechniqueNerfSearch&lt;/span&gt;&lt;/div&gt;&lt;/div&gt;" style="text;whiteSpace=wrap;html=1;" parent="1" vertex="1">
          <mxGeometry x="679" y="1100.5" width="375" height="30" as="geometry" />
        </mxCell>
        <mxCell id="_2LufP0DOa4UtMb47R02-50" value="" style="endArrow=classic;html=1;rounded=0;entryX=0;entryY=0.5;entryDx=0;entryDy=0;exitX=1;exitY=0.5;exitDx=0;exitDy=0;" parent="1" source="_2LufP0DOa4UtMb47R02-49" target="_2LufP0DOa4UtMb47R02-47" edge="1">
          <mxGeometry width="50" height="50" relative="1" as="geometry">
            <mxPoint x="970" y="1085.5" as="sourcePoint" />
            <mxPoint x="1020" y="1035.5" as="targetPoint" />
          </mxGeometry>
        </mxCell>
        <mxCell id="_2LufP0DOa4UtMb47R02-51" value="" style="endArrow=classic;html=1;rounded=0;exitX=1;exitY=0.5;exitDx=0;exitDy=0;entryX=0;entryY=0.5;entryDx=0;entryDy=0;" parent="1" source="_2LufP0DOa4UtMb47R02-7" target="_2LufP0DOa4UtMb47R02-49" edge="1">
          <mxGeometry width="50" height="50" relative="1" as="geometry">
            <mxPoint x="670" y="1100" as="sourcePoint" />
            <mxPoint x="720" y="1050" as="targetPoint" />
          </mxGeometry>
        </mxCell>
        <mxCell id="_2LufP0DOa4UtMb47R02-52" value="" style="endArrow=classic;html=1;rounded=0;exitX=1;exitY=0.5;exitDx=0;exitDy=0;entryX=0;entryY=0.5;entryDx=0;entryDy=0;" parent="1" source="_2LufP0DOa4UtMb47R02-7" target="_2LufP0DOa4UtMb47R02-45" edge="1">
          <mxGeometry width="50" height="50" relative="1" as="geometry">
            <mxPoint x="670" y="1100" as="sourcePoint" />
            <mxPoint x="720" y="1050" as="targetPoint" />
          </mxGeometry>
        </mxCell>
        <mxCell id="_2LufP0DOa4UtMb47R02-53" value="&lt;div style=&quot;color: #f8f8f2;background-color: #282a36;font-family: Consolas, &#39;Courier New&#39;, monospace;font-weight: normal;font-size: 14px;line-height: 19px;white-space: pre;&quot;&gt;&lt;div&gt;&lt;span style=&quot;color: #50fa7b;&quot;&gt;getDashZoneOf&lt;/span&gt;&lt;/div&gt;&lt;/div&gt;" style="text;whiteSpace=wrap;html=1;" parent="1" vertex="1">
          <mxGeometry x="1140" y="1100.5" width="110" height="30" as="geometry" />
        </mxCell>
        <mxCell id="_2LufP0DOa4UtMb47R02-54" value="" style="endArrow=classic;html=1;rounded=0;exitX=1;exitY=0.5;exitDx=0;exitDy=0;entryX=0;entryY=0.5;entryDx=0;entryDy=0;" parent="1" source="_2LufP0DOa4UtMb47R02-7" target="_2LufP0DOa4UtMb47R02-53" edge="1">
          <mxGeometry width="50" height="50" relative="1" as="geometry">
            <mxPoint x="1010" y="970" as="sourcePoint" />
            <mxPoint x="1060" y="920" as="targetPoint" />
          </mxGeometry>
        </mxCell>
        <mxCell id="_2LufP0DOa4UtMb47R02-55" value="" style="endArrow=classic;html=1;rounded=0;exitX=1;exitY=0.5;exitDx=0;exitDy=0;entryX=0;entryY=0.5;entryDx=0;entryDy=0;" parent="1" source="_2LufP0DOa4UtMb47R02-49" target="_2LufP0DOa4UtMb47R02-53" edge="1">
          <mxGeometry width="50" height="50" relative="1" as="geometry">
            <mxPoint x="1046" y="1045.5" as="sourcePoint" />
            <mxPoint x="1096" y="995.5" as="targetPoint" />
          </mxGeometry>
        </mxCell>
        <mxCell id="_2LufP0DOa4UtMb47R02-56" value="" style="endArrow=classic;html=1;rounded=0;entryX=0;entryY=0.5;entryDx=0;entryDy=0;exitX=1;exitY=0.5;exitDx=0;exitDy=0;" parent="1" target="_2LufP0DOa4UtMb47R02-23" edge="1" source="_2LufP0DOa4UtMb47R02-49">
          <mxGeometry width="50" height="50" relative="1" as="geometry">
            <mxPoint x="996" y="1115.5" as="sourcePoint" />
            <mxPoint x="1116" y="995.5" as="targetPoint" />
          </mxGeometry>
        </mxCell>
        <mxCell id="_2LufP0DOa4UtMb47R02-57" value="&lt;div style=&quot;color: #f8f8f2;background-color: #282a36;font-family: Consolas, &#39;Courier New&#39;, monospace;font-weight: normal;font-size: 14px;line-height: 19px;white-space: pre;&quot;&gt;&lt;div&gt;&lt;span style=&quot;color: #50fa7b;&quot;&gt;getPivotNerfedCoords&lt;/span&gt;&lt;/div&gt;&lt;/div&gt;" style="text;whiteSpace=wrap;html=1;" parent="1" vertex="1">
          <mxGeometry x="30" y="640" width="160" height="30" as="geometry" />
        </mxCell>
        <mxCell id="Jbx_xCPxEH5dOAa4jp7a-1" value="&lt;div style=&quot;color: #f8f8f2;background-color: #282a36;font-family: Consolas, &#39;Courier New&#39;, monospace;font-weight: normal;font-size: 14px;line-height: 19px;white-space: pre;&quot;&gt;&lt;div&gt;&lt;span style=&quot;color: rgb(139, 233, 253); font-style: italic;&quot;&gt;directionDeadzoneHistoryObject.&lt;/span&gt;&lt;span style=&quot;color: #50fa7b;&quot;&gt;recordDeadzoneOutput&lt;/span&gt;&lt;/div&gt;&lt;/div&gt;" style="text;whiteSpace=wrap;html=1;" vertex="1" parent="1">
          <mxGeometry x="684" y="840" width="400" height="30" as="geometry" />
        </mxCell>
        <mxCell id="Jbx_xCPxEH5dOAa4jp7a-2" value="" style="endArrow=classic;html=1;rounded=0;exitX=1;exitY=0.5;exitDx=0;exitDy=0;entryX=0;entryY=0.5;entryDx=0;entryDy=0;" edge="1" parent="1" source="_2LufP0DOa4UtMb47R02-7" target="Jbx_xCPxEH5dOAa4jp7a-1">
          <mxGeometry width="50" height="50" relative="1" as="geometry">
            <mxPoint x="990" y="880" as="sourcePoint" />
            <mxPoint x="1040" y="830" as="targetPoint" />
          </mxGeometry>
        </mxCell>
        <mxCell id="Jbx_xCPxEH5dOAa4jp7a-4" value="" style="endArrow=none;dashed=1;html=1;dashPattern=1 3;strokeWidth=2;rounded=0;" edge="1" parent="1">
          <mxGeometry width="50" height="50" relative="1" as="geometry">
            <mxPoint x="520" y="740" as="sourcePoint" />
            <mxPoint x="1710" y="740" as="targetPoint" />
          </mxGeometry>
        </mxCell>
        <mxCell id="Jbx_xCPxEH5dOAa4jp7a-5" value="" style="endArrow=none;dashed=1;html=1;dashPattern=1 3;strokeWidth=2;rounded=0;" edge="1" parent="1">
          <mxGeometry width="50" height="50" relative="1" as="geometry">
            <mxPoint x="530" y="930" as="sourcePoint" />
            <mxPoint x="1710" y="930" as="targetPoint" />
          </mxGeometry>
        </mxCell>
      </root>
    </mxGraphModel>
  </diagram>
</mxfile>
